<svg xmlns="http://www.w3.org/2000/svg" width="36" height="36" viewBox="0 0 36 36" fill="none"><path d="M35.0809 17.0206L19.5094 1.95987L18 0.5L6.27836 11.8371L0.919075 17.0206C0.360308 17.5617 0.360308 18.4383 0.919075 18.9794L11.6281 29.3371L18 35.5L29.7216 24.1629L29.9032 23.9873L35.0809 18.9794C35.6397 18.4383 35.6397 17.5617 35.0809 17.0206ZM18 23.1742L12.6503 18L18 12.8258L23.3497 18L18 23.1742Z" fill="#2684FF"></path><path fill-rule="evenodd" clip-rule="evenodd" d="M17.9994 12.8257C14.4968 9.43759 14.4798 3.94993 17.9612 0.541504L6.25391 11.8601L12.6258 18.023L17.9994 12.8257Z" fill="url(#paint0_linear_5622_2518)"></path><path fill-rule="evenodd" clip-rule="evenodd" d="M23.3641 17.9863L18 23.1744C19.6906 24.8086 20.6404 27.0256 20.6404 29.3373C20.6404 31.649 19.6906 33.866 18 35.5002L29.736 24.1492L23.3641 17.9863Z" fill="url(#paint1_linear_5622_2518)"></path><defs><linearGradient id="paint0_linear_5622_2518" x1="17.0441" y1="7.5914" x2="8.12008" y2="11.4878" gradientUnits="userSpaceOnUse"><stop offset="0.18" stop-color="#0052CC"></stop><stop offset="1" stop-color="#2684FF"></stop></linearGradient><linearGradient id="paint1_linear_5622_2518" x1="19.0222" y1="28.3487" x2="27.9302" y2="24.4799" gradientUnits="userSpaceOnUse"><stop offset="0.18" stop-color="#0052CC"></stop><stop offset="1" stop-color="#2684FF"></stop></linearGradient></defs></svg>