<svg width="19" height="18" viewBox="0 0 19 18" fill="none" xmlns="http://www.w3.org/2000/svg">
<path fill-rule="evenodd" clip-rule="evenodd" d="M9.49987 0.717773C4.81045 0.717773 1.00781 4.51957 1.00781 9.20984C1.00781 12.962 3.44105 16.145 6.8152 17.2681C7.23947 17.3468 7.39528 17.0839 7.39528 16.8596C7.39528 16.6571 7.38741 15.9881 7.38375 15.2785C5.02125 15.7922 4.52273 14.2766 4.52273 14.2766C4.13644 13.295 3.57984 13.034 3.57984 13.034C2.80922 12.5069 3.63792 12.5179 3.63792 12.5179C4.49053 12.5777 4.93969 13.393 4.93969 13.393C5.69709 14.691 6.9263 14.3158 7.41089 14.0989C7.48711 13.5501 7.70719 13.1753 7.95005 12.9633C6.06384 12.7488 4.08089 12.0205 4.08089 8.76659C4.08089 7.83945 4.41277 7.0819 4.956 6.48705C4.86769 6.2733 4.57702 5.40959 5.03812 4.23987C5.03812 4.23987 5.75109 4.01163 7.37391 5.11034C8.05144 4.92204 8.77805 4.8274 9.49987 4.82416C10.2213 4.8274 10.9483 4.92176 11.6271 5.11005C13.248 4.01135 13.9601 4.23959 13.9601 4.23959C14.4223 5.40916 14.1316 6.27302 14.0435 6.48677C14.588 7.08162 14.9175 7.83916 14.9175 8.7663C14.9175 12.028 12.9308 12.746 11.0399 12.9564C11.3446 13.2199 11.616 13.7368 11.616 14.529C11.616 15.6652 11.6062 16.5797 11.6062 16.8594C11.6062 17.0854 11.7592 17.3502 12.1895 17.2668C15.5617 16.1426 17.9921 12.9606 17.9921 9.20984C17.9919 4.51985 14.1897 0.717773 9.49987 0.717773Z" fill="white"/>
<path d="M4.22367 12.9094C4.20497 12.9516 4.1386 12.9642 4.07813 12.9354C4.01625 12.9078 3.9818 12.8503 4.00177 12.808C4.02005 12.7644 4.08657 12.7524 4.14802 12.7815C4.20989 12.8093 4.24505 12.8673 4.22353 12.9095L4.22367 12.9094ZM4.56764 13.2931C4.52728 13.3307 4.44811 13.3133 4.39439 13.2538C4.33871 13.1947 4.3283 13.1155 4.3695 13.0774C4.41141 13.04 4.48819 13.0577 4.54388 13.1168C4.59928 13.1767 4.61025 13.2552 4.56778 13.2933L4.56764 13.2931ZM4.90261 13.7821C4.85058 13.8184 4.76536 13.7845 4.71277 13.709C4.66074 13.6333 4.66074 13.5426 4.71417 13.5065C4.76663 13.4702 4.85058 13.503 4.90402 13.5778C4.95577 13.6544 4.95577 13.7453 4.90261 13.7821ZM5.36119 14.2547C5.31478 14.3061 5.2155 14.2923 5.14294 14.2224C5.06883 14.1539 5.04816 14.0565 5.09471 14.0053C5.14196 13.9538 5.24166 13.9681 5.31464 14.0376C5.38875 14.106 5.41111 14.2035 5.36147 14.2546L5.36119 14.2547ZM5.994 14.5291C5.97333 14.5956 5.87799 14.6258 5.78166 14.5974C5.68561 14.5683 5.62275 14.4906 5.64244 14.4233C5.66213 14.3563 5.75817 14.3249 5.85507 14.3551C5.95111 14.3841 6.01397 14.4615 5.994 14.5291ZM6.68911 14.5799C6.6915 14.6499 6.60994 14.7078 6.50911 14.7092C6.40744 14.7116 6.32517 14.6548 6.32419 14.5859C6.32419 14.5152 6.40406 14.4579 6.5056 14.456C6.60642 14.4541 6.68925 14.5104 6.68925 14.5797L6.68911 14.5799ZM7.33571 14.4699C7.3478 14.5381 7.27763 14.6083 7.17736 14.627C7.07892 14.6453 6.98752 14.6028 6.97486 14.5351C6.96277 14.4651 7.03421 14.3949 7.13264 14.3768C7.23305 14.3595 7.32305 14.4006 7.33571 14.4699Z" fill="white"/>
</svg>
