<svg width="40" height="40" viewBox="0 0 40 40" fill="none" xmlns="http://www.w3.org/2000/svg"><path d="M2.5 14.5C2.5 10.2996 2.5 8.19941 3.31745 6.59507C4.0365 5.18386 5.18386 4.0365 6.59507 3.31745C8.19941 2.5 10.2996 2.5 14.5 2.5H25.5C29.7004 2.5 31.8006 2.5 33.4049 3.31745C34.8161 4.0365 35.9635 5.18386 36.6825 6.59507C37.5 8.19941 37.5 10.2996 37.5 14.5V25.5C37.5 29.7004 37.5 31.8006 36.6825 33.4049C35.9635 34.8161 34.8161 35.9635 33.4049 36.6825C31.8006 37.5 29.7004 37.5 25.5 37.5H14.5C10.2996 37.5 8.19941 37.5 6.59507 36.6825C5.18386 35.9635 4.0365 34.8161 3.31745 33.4049C2.5 31.8006 2.5 29.7004 2.5 25.5V14.5Z" fill="#4087FC"></path><path d="M10.3333 12.5C9.45888 12.5 8.75 13.2995 8.75 14.2857V22.9464C8.75 25.4613 10.5577 27.5 12.7875 27.5L22.1667 27.4107C23.0411 27.4107 23.75 26.6113 23.75 25.625V16.875C23.75 14.3602 21.6048 12.5 19.375 12.5L10.3333 12.5Z" fill="white"></path><path d="M25.8903 15.9095C25.3244 16.469 25 17.2764 25 18.125V21.7491C25 22.5978 25.3244 23.4052 25.8903 23.9647L29.411 27.0656C30.1274 27.7739 31.25 27.2002 31.25 26.1256V13.919C31.25 12.8444 30.1274 12.2707 29.411 12.979L25.8903 15.9095Z" fill="white"></path></svg>