<svg xmlns="http://www.w3.org/2000/svg" width="34" height="26" viewBox="0 0 34 26" fill="none"><path d="M25.8983 2.73975L17.0938 9.61095L8.08789 2.73975V2.7416L8.09877 2.75089V12.3724L16.9922 19.3922L25.8983 12.6436V2.73975Z" fill="#EA4335"></path><path d="M28.2107 1.06821L25.8984 2.73959V12.6434L33.1742 7.05731V3.69227C33.1742 3.69227 32.291 -1.11386 28.2107 1.06821Z" fill="#FBBC05"></path><path d="M25.8984 12.6437V25.4892H31.475C31.475 25.4892 33.0618 25.3257 33.176 23.5169V7.05762L25.8984 12.6437Z" fill="#34A853"></path><path d="M8.09918 25.4998V12.3721L8.08789 12.3628L8.09918 25.4998Z" fill="#C5221F"></path><path d="M8.08912 2.7417L5.7896 1.07961C1.70921 -1.10246 0.824219 3.70181 0.824219 3.70181V7.06685L8.08912 12.3632V2.7417Z" fill="#C5221F"></path><path d="M8.08789 2.74121V12.3628L8.09918 12.372V2.7505L8.08789 2.74121Z" fill="#C5221F"></path><path d="M0.824219 7.06836V23.5277C0.936656 25.3383 2.52529 25.4999 2.52529 25.4999H8.10182L8.08912 12.3629L0.824219 7.06836Z" fill="#4285F4"></path></svg>