<svg xmlns="http://www.w3.org/2000/svg" width="40" height="40" viewBox="0 0 40 40" fill="none"><path d="M2.5 12.5625C2.5 9.00318 2.5 7.22352 3.20367 5.86891C3.79664 4.72739 4.72739 3.79664 5.86891 3.20367C7.22352 2.5 9.00318 2.5 12.5625 2.5H27.4375C30.9968 2.5 32.7765 2.5 34.1311 3.20367C35.2726 3.79664 36.2034 4.72739 36.7963 5.86891C37.5 7.22352 37.5 9.00318 37.5 12.5625V27.4375C37.5 30.9968 37.5 32.7765 36.7963 34.1311C36.2034 35.2726 35.2726 36.2034 34.1311 36.7963C32.7765 37.5 30.9968 37.5 27.4375 37.5H12.5625C9.00318 37.5 7.22352 37.5 5.86891 36.7963C4.72739 36.2034 3.79664 35.2726 3.20367 34.1311C2.5 32.7765 2.5 30.9968 2.5 27.4375V12.5625Z" fill="url(#paint0_linear_5622_4888)"></path><path d="M18.2756 30.2419L9.75781 21.7241C10.4854 26.0779 13.9218 29.5144 18.2756 30.2419Z" fill="#F2F3F8"></path><path d="M9.63086 19.422L20.5778 30.3689C21.2272 30.3332 21.8607 30.238 22.473 30.0884L9.91141 17.5269C9.7618 18.1391 9.66656 18.7726 9.63086 19.422Z" fill="#F2F3F8"></path><path d="M10.459 15.8971L24.1047 29.5428C24.601 29.329 25.0774 29.0778 25.5301 28.7924L11.2093 14.4717C10.924 14.9244 10.6727 15.4007 10.459 15.8971Z" fill="#F2F3F8"></path><path d="M12.1309 13.2208C14.0352 11.0128 16.8532 9.61523 19.9977 9.61523C25.733 9.61523 30.3823 14.2646 30.3823 19.9998C30.3823 23.1444 28.9847 25.9624 26.7768 27.8667L12.1309 13.2208Z" fill="#F2F3F8"></path><defs><linearGradient id="paint0_linear_5622_4888" x1="2.5" y1="37.5" x2="37.5" y2="2.5" gradientUnits="userSpaceOnUse"><stop stop-color="#29359B"></stop><stop offset="1" stop-color="#6068CA"></stop></linearGradient></defs></svg>