<svg xmlns="http://www.w3.org/2000/svg" width="40" height="40" viewBox="0 0 40 40" fill="none"><path fill-rule="evenodd" clip-rule="evenodd" d="M7.145 36.5222L2.8458 31.1664C1.81141 29.8778 1.25 28.2933 1.25 26.6623V7.26873C1.25 4.8258 3.20448 2.79871 5.72589 2.62656L25.6652 1.26523C27.1137 1.16633 28.5535 1.55136 29.7434 2.35588L36.7491 7.09239C38.0031 7.94024 38.75 9.32623 38.75 10.8053V32.854C38.75 35.2447 36.8282 37.2241 34.3595 37.3761L12.2292 38.7383C10.2592 38.8596 8.35499 38.0296 7.145 36.5222Z" fill="white"></path><path d="M14.0611 16.9733V16.7194C14.0611 16.0757 14.5766 15.542 15.2409 15.4976L20.0801 15.1745L26.7723 25.0293V16.3801L25.0497 16.1504V16.0298C25.0497 15.3787 25.577 14.8414 26.2498 14.8069L30.653 14.5813V15.215C30.653 15.5124 30.4318 15.7669 30.1286 15.8181L29.069 15.9974V30.0045L27.7392 30.4618C26.6283 30.8439 25.3914 30.4349 24.7555 29.4752L18.2586 19.6714V29.0286L20.2583 29.4113L20.2304 29.5968C20.1432 30.1778 19.6415 30.6172 19.0347 30.6442L14.0611 30.8656C13.9953 30.2408 14.4636 29.6818 15.1096 29.614L15.7638 29.5452V17.0689L14.0611 16.9733Z" fill="black"></path><path fill-rule="evenodd" clip-rule="evenodd" d="M25.8446 3.70836L5.90532 5.06969C4.71096 5.15124 3.78516 6.11144 3.78516 7.26861V26.6622C3.78516 27.7495 4.15943 28.8059 4.84902 29.6649L9.14822 35.0208C9.84332 35.8867 10.9372 36.3635 12.0689 36.2938L34.1993 34.9316C35.3335 34.8617 36.2165 33.9523 36.2165 32.8538V10.8052C36.2165 10.1256 35.8733 9.48881 35.2972 9.09926L28.2916 4.36275C27.5776 3.88004 26.7137 3.64902 25.8446 3.70836ZM6.89406 7.57112C6.61674 7.36581 6.74872 6.93806 7.0971 6.91307L25.9787 5.55876C26.5803 5.51561 27.1781 5.68128 27.6646 6.02598L31.4531 8.71004C31.5969 8.81194 31.5294 9.03192 31.3514 9.0416L11.3558 10.1291C10.7507 10.162 10.1534 9.98422 9.67224 9.628L6.89406 7.57112ZM10.4179 13.5383C10.4179 12.8887 10.9427 12.3521 11.6138 12.3155L32.7548 11.1642C33.4088 11.1286 33.9594 11.6315 33.9594 12.2646V31.3565C33.9594 32.0049 33.4365 32.5409 32.7667 32.579L11.7596 33.7743C11.0317 33.8157 10.4179 33.2564 10.4179 32.5517V13.5383Z" fill="black"></path></svg>