<svg xmlns="http://www.w3.org/2000/svg" width="40" height="40" viewBox="0 0 40 40" fill="none"><path fill-rule="evenodd" clip-rule="evenodd" d="M31.2667 5H8.75238C6.68 5 5 6.67893 5 8.75V31.25C5 33.3211 6.68 35 8.75238 35H31.2667C33.3316 34.9895 35 33.3137 35 31.25V8.75C35 6.68634 33.3316 5.01048 31.2667 5ZM11.25 8.75H16.25C17.6307 8.75 18.75 9.86929 18.75 11.25V28.75C18.75 30.1307 17.6307 31.25 16.25 31.25H11.25C9.86929 31.25 8.75 30.1307 8.75 28.75V11.25C8.75 9.86929 9.86929 8.75 11.25 8.75ZM28.75 8.75H23.75C22.3693 8.75 21.25 9.86929 21.25 11.25V20C21.25 21.3807 22.3693 22.5 23.75 22.5H28.75C30.1307 22.5 31.25 21.3807 31.25 20V11.25C31.25 9.86929 30.1307 8.75 28.75 8.75Z" fill="url(#paint0_linear_5622_2642)"></path><defs><linearGradient id="paint0_linear_5622_2642" x1="20.0095" y1="35" x2="20.0095" y2="5" gradientUnits="userSpaceOnUse"><stop stop-color="#0052CC"></stop><stop offset="0.51698" stop-color="#217EF8"></stop><stop offset="1" stop-color="#2684FF"></stop></linearGradient></defs></svg>