<svg xmlns="http://www.w3.org/2000/svg" width="34" height="28" viewBox="0 0 34 28" fill="none"><path d="M0.195312 25.5498C0.195312 26.7653 1.18832 27.7498 2.41179 27.7498H2.44365C1.20145 27.7498 0.195312 26.7653 0.195312 25.5498Z" fill="#FBBC05"></path><path d="M19.2427 8.49984V14.2436L26.9864 7.99752V2.44996C26.9864 1.23448 25.9933 0.25 24.7699 0.25H7.99351L7.97852 8.49984H19.2427Z" fill="#FBBC05"></path><path d="M19.2433 19.9898H7.96038L7.94727 27.7502H24.7705C25.9958 27.7502 26.987 26.7657 26.987 25.5502V20.5416L19.2433 14.2461V19.9898Z" fill="#34A853"></path><path d="M7.99331 0.25L0.195312 8.49984H7.98019L7.99331 0.25Z" fill="#EA4335"></path><path d="M0.195312 19.9893V25.5497C0.195312 26.7651 1.20145 27.7496 2.44365 27.7496H7.94647L7.95959 19.9893H0.195312Z" fill="#1967D2"></path><path d="M7.98019 8.5H0.195312V19.9893H7.95959L7.98019 8.5Z" fill="#4285F4"></path><path d="M33.7951 23.5941V4.71118C33.3586 2.20506 30.61 5.07784 30.61 5.07784L26.9883 7.99828V20.5399L32.1726 24.7546C34.0443 25.0003 33.7951 23.5941 33.7951 23.5941Z" fill="#34A853"></path><path d="M19.2422 14.2437L26.9877 20.5411V7.99951L19.2422 14.2437Z" fill="#188038"></path></svg>