<svg xmlns="http://www.w3.org/2000/svg" width="40" height="40" viewBox="0 0 40 40" fill="none"><path d="M37.5 18.1683H26.8379L36.0713 12.8367L34.2403 9.66333L25.0057 14.995L30.3356 5.76083L27.1633 3.92917L21.8322 13.161V2.5H18.1678V13.1622L12.8367 3.92917L9.66328 5.76083L14.9932 14.9927L5.76091 9.66333L3.92869 12.8367L13.1621 18.1683H2.5V21.8328H13.1609L3.92869 27.1645L5.75975 30.3378L14.9943 25.0062L9.66328 34.2403L12.8356 36.072L18.1678 26.839V37.5H21.8322V26.6103L27.2612 36.0137L30.2364 34.2963L24.8062 24.8907L34.2379 30.3367L36.0701 27.1633L26.8379 21.8317H37.4988V18.1683H37.5ZM20 24.9817C19.3459 24.9817 18.6981 24.8529 18.0937 24.6026C17.4894 24.3523 16.9402 23.9853 16.4776 23.5226C16.015 23.06 15.648 22.5107 15.3976 21.9062C15.1472 21.3017 15.0183 20.6538 15.0182 19.9994C15.0182 19.3451 15.1469 18.6971 15.3972 18.0925C15.6474 17.4879 16.0143 16.9386 16.4768 16.4759C16.9393 16.0131 17.4884 15.646 18.0927 15.3955C18.697 15.145 19.3447 15.0161 19.9988 15.016C21.3199 15.0158 22.587 15.5407 23.5212 16.475C24.4555 17.4094 24.9804 18.6767 24.9806 19.9982C24.9807 21.3198 24.4561 22.5872 23.522 23.5218C22.588 24.4564 21.3211 24.9815 20 24.9817Z" fill="#625DF5"></path></svg>